<?xml version="1.0" encoding="UTF-8" standalone="no"?>
<!-- Created with Inkscape (http://www.inkscape.org/) -->

<svg
   xmlns:dc="http://purl.org/dc/elements/1.1/"
   xmlns:cc="http://creativecommons.org/ns#"
   xmlns:rdf="http://www.w3.org/1999/02/22-rdf-syntax-ns#"
   xmlns:svg="http://www.w3.org/2000/svg"
   xmlns="http://www.w3.org/2000/svg"
   xmlns:xlink="http://www.w3.org/1999/xlink"
   xmlns:sodipodi="http://sodipodi.sourceforge.net/DTD/sodipodi-0.dtd"
   xmlns:inkscape="http://www.inkscape.org/namespaces/inkscape"
   width="120.92673"
   height="57.750759"
   viewBox="0 0 276.75777 132.17069"
   version="1.1"
   id="svg8"
   sodipodi:docname="lander.svg"
   inkscape:version="0.92.3 (unknown)">
  <defs
     id="defs2">
    <linearGradient
       inkscape:collect="always"
       id="linearGradient2688">
      <stop
         style="stop-color:#b88600;stop-opacity:1;"
         offset="0"
         id="stop2684" />
      <stop
         style="stop-color:#b88600;stop-opacity:0;"
         offset="1"
         id="stop2686" />
    </linearGradient>
    <linearGradient
       inkscape:collect="always"
       id="linearGradient2654">
      <stop
         style="stop-color:#b88600;stop-opacity:1;"
         offset="0"
         id="stop2650" />
      <stop
         style="stop-color:#b88600;stop-opacity:0;"
         offset="1"
         id="stop2652" />
    </linearGradient>
    <linearGradient
       inkscape:collect="always"
       id="linearGradient2646">
      <stop
         style="stop-color:#b88600;stop-opacity:1;"
         offset="0"
         id="stop2642" />
      <stop
         style="stop-color:#b88600;stop-opacity:0;"
         offset="1"
         id="stop2644" />
    </linearGradient>
    <pattern
       inkscape:collect="always"
       xlink:href="#pattern2577"
       id="pattern2584"
       patternTransform="matrix(0,0.32784976,-0.32784976,0,115.289,64.138407)" />
    <pattern
       inkscape:collect="always"
       xlink:href="#pattern2570"
       id="pattern2580"
       patternTransform="translate(3.3753691e-6,-1.2881398e-5)" />
    <linearGradient
       inkscape:collect="always"
       id="linearGradient2404">
      <stop
         style="stop-color:#00758c;stop-opacity:1;"
         offset="0"
         id="stop2400" />
      <stop
         style="stop-color:#00758c;stop-opacity:0;"
         offset="1"
         id="stop2402" />
    </linearGradient>
    <linearGradient
       inkscape:collect="always"
       id="linearGradient2302">
      <stop
         style="stop-color:#00758c;stop-opacity:1;"
         offset="0"
         id="stop2298" />
      <stop
         style="stop-color:#00758c;stop-opacity:0;"
         offset="1"
         id="stop2300" />
    </linearGradient>
    <linearGradient
       inkscape:collect="always"
       id="linearGradient821">
      <stop
         style="stop-color:#00758c;stop-opacity:1;"
         offset="0"
         id="stop817" />
      <stop
         style="stop-color:#00758c;stop-opacity:0;"
         offset="1"
         id="stop819" />
    </linearGradient>
    <clipPath
       clipPathUnits="userSpaceOnUse"
       id="clipPath2328">
      <rect
         style="fill:url(#linearGradient2332);fill-opacity:1;stroke:#7fcee8;stroke-width:0.02645833;stroke-miterlimit:4;stroke-dasharray:none;stroke-opacity:1"
         id="rect2330"
         width="88.446442"
         height="122.08631"
         x="57.452377"
         y="88.35714" />
    </clipPath>
    <linearGradient
       inkscape:collect="always"
       xlink:href="#linearGradient821"
       id="linearGradient2332"
       gradientUnits="userSpaceOnUse"
       x1="57.439148"
       y1="135.60416"
       x2="151.95966"
       y2="134.09225" />
    <linearGradient
       gradientTransform="translate(-0.39656932,-7.6803506)"
       inkscape:collect="always"
       xlink:href="#linearGradient2302"
       id="linearGradient823"
       x1="145.44186"
       y1="121.22462"
       x2="57.917538"
       y2="146.45865"
       gradientUnits="userSpaceOnUse" />
    <clipPath
       clipPathUnits="userSpaceOnUse"
       id="clipPath2328-3">
      <rect
         style="fill:url(#linearGradient2332);fill-opacity:1;stroke:#7fcee8;stroke-width:0.02645833;stroke-miterlimit:4;stroke-dasharray:none;stroke-opacity:1"
         id="rect2330-5"
         width="88.446442"
         height="122.08631"
         x="57.452377"
         y="88.35714" />
    </clipPath>
    <linearGradient
       inkscape:collect="always"
       xlink:href="#linearGradient2404"
       id="linearGradient2408"
       x1="145.89882"
       y1="210.44345"
       x2="52.709846"
       y2="210.44345"
       gradientUnits="userSpaceOnUse" />
    <clipPath
       clipPathUnits="userSpaceOnUse"
       id="clipPath2463">
      <ellipse
         style="fill:#00758c;fill-opacity:1;stroke:none;stroke-width:0.0299413;stroke-linejoin:round;stroke-miterlimit:4;stroke-dasharray:none;stroke-opacity:1"
         id="ellipse2465"
         cx="101.37569"
         cy="82.313637"
         rx="44.432743"
         ry="67.152397" />
    </clipPath>
    <clipPath
       clipPathUnits="userSpaceOnUse"
       id="clipPath2467">
      <ellipse
         style="fill:#00758c;fill-opacity:1;stroke:none;stroke-width:0.03038532;stroke-linejoin:round;stroke-miterlimit:4;stroke-dasharray:none;stroke-opacity:1"
         id="ellipse2469"
         cx="-101.57894"
         cy="-334.49188"
         rx="44.432743"
         ry="69.158882"
         transform="scale(-1)" />
    </clipPath>
    <linearGradient
       gradientTransform="matrix(0,1.2391172,-1.2391172,0,224.77388,-7.051828)"
       inkscape:collect="always"
       xlink:href="#linearGradient2404"
       id="linearGradient823-2"
       x1="57.439148"
       y1="135.60416"
       x2="151.95966"
       y2="134.09225"
       gradientUnits="userSpaceOnUse" />
    <linearGradient
       inkscape:collect="always"
       xlink:href="#linearGradient2404"
       id="linearGradient2408-2"
       x1="145.89882"
       y1="210.44345"
       x2="52.709846"
       y2="210.44345"
       gradientUnits="userSpaceOnUse" />
    <clipPath
       clipPathUnits="userSpaceOnUse"
       id="clipPath2328-3-9">
      <rect
         style="fill:url(#linearGradient2332);fill-opacity:1;stroke:#7fcee8;stroke-width:0.02645833;stroke-miterlimit:4;stroke-dasharray:none;stroke-opacity:1"
         id="rect2330-5-3"
         width="88.446442"
         height="122.08631"
         x="57.452377"
         y="88.35714" />
    </clipPath>
    <clipPath
       clipPathUnits="userSpaceOnUse"
       id="clipPath2328-3-9-1">
      <rect
         style="fill:url(#linearGradient2332);fill-opacity:1;stroke:#7fcee8;stroke-width:0.02645833;stroke-miterlimit:4;stroke-dasharray:none;stroke-opacity:1"
         id="rect2330-5-3-8"
         width="88.446442"
         height="122.08631"
         x="57.452377"
         y="88.35714" />
    </clipPath>
    <clipPath
       clipPathUnits="userSpaceOnUse"
       id="clipPath2528">
      <use
         x="0"
         y="0"
         xlink:href="#g2524"
         id="use2530"
         width="100%"
         height="100%" />
    </clipPath>
    <linearGradient
       inkscape:collect="always"
       xlink:href="#linearGradient2404"
       id="linearGradient2540"
       gradientUnits="userSpaceOnUse"
       x1="145.89882"
       y1="210.44345"
       x2="52.709846"
       y2="210.44345" />
    <pattern
       patternUnits="userSpaceOnUse"
       width="334.07506"
       height="22.489758"
       patternTransform="matrix(0.26458333,0,0,0.26458333,54.476098,111.04324)"
       id="pattern2570">
      <g
         mask="none"
         transform="matrix(3.7795276,0,0,3.7795276,-205.89392,-419.691)"
         clip-path="url(#clipPath2528)"
         id="g2526">
        <g
           id="g2524"
           inkscape:label="Clip">
          <path
             inkscape:connector-curvature="0"
             id="path825-6-6-7"
             d="m 145.84307,210.55188 a 44.195362,6.23664 0 0 1 -44.19536,6.23664 44.195362,6.23664 0 0 1 -44.195359,-6.23664 44.195362,6.23664 0 0 1 44.195359,-6.23664 44.195362,6.23664 0 0 1 44.19536,6.23664 z"
             clip-path="url(#clipPath2328-3-9-1)"
             style="fill:url(#linearGradient2540);fill-opacity:1;stroke:none;stroke-width:0.026;stroke-linejoin:round;stroke-miterlimit:4;stroke-dasharray:none;stroke-opacity:1"
             transform="matrix(-1,0,0,-0.97098734,200.31917,315.38117)" />
        </g>
      </g>
    </pattern>
    <pattern
       patternUnits="userSpaceOnUse"
       width="334.07506"
       height="22.489758"
       patternTransform="matrix(0.26458333,0,0,0.26458333,54.476097,111.04324)"
       id="pattern2577">
      <rect
         id="rect2575"
         y="-5.6843419e-14"
         x="0"
         height="22.489758"
         width="334.07507"
         style="fill:url(#pattern2580);stroke:none;stroke-width:3.77952766" />
    </pattern>
    <linearGradient
       inkscape:collect="always"
       xlink:href="#linearGradient2646"
       id="linearGradient2648"
       x1="72.515732"
       y1="-269.85712"
       x2="83.24749"
       y2="-269.85013"
       gradientUnits="userSpaceOnUse"
       gradientTransform="matrix(1.2391171,0,0,1.2391171,52.337617,252.28656)" />
    <linearGradient
       inkscape:collect="always"
       xlink:href="#linearGradient2654"
       id="linearGradient2656"
       x1="-118.39157"
       y1="-242.25562"
       x2="-128.49249"
       y2="-242.84552"
       gradientUnits="userSpaceOnUse"
       gradientTransform="matrix(0.15888629,-1.2288883,1.209093,0.27111917,252.7059,-3.294785)" />
    <linearGradient
       inkscape:collect="always"
       xlink:href="#linearGradient2688"
       id="linearGradient2699-2"
       x1="41.498093"
       y1="278.86118"
       x2="3.5392828"
       y2="273.46378"
       gradientUnits="userSpaceOnUse"
       gradientTransform="translate(27.300623,2.9952731)" />
    <linearGradient
       inkscape:collect="always"
       xlink:href="#linearGradient2688"
       id="linearGradient2699-2-1"
       x1="33.784054"
       y1="280.6116"
       x2="50.618324"
       y2="277.22592"
       gradientUnits="userSpaceOnUse"
       gradientTransform="translate(27.300317,2.9952421)" />
    <linearGradient
       inkscape:collect="always"
       xlink:href="#linearGradient2688"
       id="linearGradient2699-2-1-7"
       x1="33.784054"
       y1="280.6116"
       x2="50.618324"
       y2="277.22592"
       gradientUnits="userSpaceOnUse"
       gradientTransform="translate(69.329836,6.6592982)" />
    <linearGradient
       inkscape:collect="always"
       xlink:href="#linearGradient2688"
       id="linearGradient2699-2-5"
       x1="41.498093"
       y1="278.86118"
       x2="3.5392828"
       y2="273.46378"
       gradientUnits="userSpaceOnUse"
       gradientTransform="translate(69.330142,6.6593182)" />
  </defs>
  <sodipodi:namedview
     id="base"
     pagecolor="#ffffff"
     bordercolor="#666666"
     borderopacity="1.0"
     inkscape:pageopacity="0.0"
     inkscape:pageshadow="2"
     inkscape:zoom="3.82"
     inkscape:cx="125.38294"
     inkscape:cy="-9.7491664"
     inkscape:document-units="px"
     inkscape:current-layer="layer1"
     showgrid="false"
     inkscape:window-width="1920"
     inkscape:window-height="1005"
     inkscape:window-x="0"
     inkscape:window-y="24"
     inkscape:window-maximized="1"
     fit-margin-top="0"
     fit-margin-left="0.5"
     fit-margin-right="0.5"
     fit-margin-bottom="0.6"
     viewbox-width="130.6"
     units="px"
     scale-x="2.28864" />
  <metadata
     id="metadata5">
    <rdf:RDF>
      <cc:Work
         rdf:about="">
        <dc:format>image/svg+xml</dc:format>
        <dc:type
           rdf:resource="http://purl.org/dc/dcmitype/StillImage" />
        <dc:title></dc:title>
      </cc:Work>
    </rdf:RDF>
  </metadata>
  <g
     inkscape:label="Layer 1"
     inkscape:groupmode="layer"
     id="layer1"
     transform="translate(86.725318,-54.319177)">
    <ellipse
       transform="matrix(0,-1.2391172,1.2031671,0,-251.56129,248.18977)"
       style="fill:url(#linearGradient2408);fill-opacity:1;stroke:none;stroke-width:0.026;stroke-linejoin:round;stroke-miterlimit:4;stroke-dasharray:none;stroke-opacity:1"
       id="path825-6"
       cx="101.64771"
       cy="210.55188"
       rx="44.195362"
       ry="6.23664"
       clip-path="url(#clipPath2467)" />
    <path
       transform="matrix(0,-1.2391172,1.0794534,0,27.546493,244.43274)"
       style="fill:url(#linearGradient823);fill-opacity:1;stroke:none;stroke-width:0.02645833;stroke-linejoin:round;stroke-miterlimit:4;stroke-dasharray:none;stroke-opacity:1"
       clip-path="url(#clipPath2463)"
       d="M 57.055809,80.676796 H 145.50225 V 202.76311 H 57.055809 Z"
       id="rect815"
       inkscape:connector-curvature="0" />
    <ellipse
       transform="matrix(0,-1.2391172,1.2031671,0,-289.18882,244.92413)"
       style="fill:url(#linearGradient2408-2);fill-opacity:1;stroke:none;stroke-width:0.026;stroke-linejoin:round;stroke-miterlimit:4;stroke-dasharray:none;stroke-opacity:1"
       id="path825-6-6"
       cx="101.64771"
       cy="210.55188"
       rx="44.195362"
       ry="6.23664"
       clip-path="url(#clipPath2328-3-9)" />
    <path
       style="fill:url(#linearGradient823-2);fill-opacity:1;stroke:none;stroke-width:0.03278498;stroke-linejoin:round;stroke-miterlimit:4;stroke-dasharray:none;stroke-opacity:1"
       mask="none"
       d="M 115.28903,64.138392 V 173.73389 H -35.990227 V 64.138392 Z"
       id="rect815-0"
       inkscape:connector-curvature="0" />
    <path
       style="opacity:0.68999999;fill:url(#pattern2584);stroke:#00758c;stroke-width:1.23911726;stroke-opacity:0"
       d="M 115.28903,64.138392 V 173.66482 h -7.37324 V 64.138392 Z"
       id="rect2582"
       inkscape:connector-curvature="0" />
    <path
       style="opacity:0.68999999;fill:url(#linearGradient2656);fill-opacity:1;stroke:#00758c;stroke-width:0.03858906;stroke-linejoin:round;stroke-miterlimit:4;stroke-dasharray:none;stroke-opacity:0"
       d="m -82.679257,76.023161 0.71526,-5.531176 40.77614,9.143381 -0.71526,5.531176 z"
       id="rect2610"
       inkscape:connector-curvature="0" />
    <rect
       style="opacity:0.68999999;fill:url(#linearGradient2648);fill-opacity:1;stroke:#00758c;stroke-width:0.03867099;stroke-linejoin:round;stroke-miterlimit:4;stroke-dasharray:none;stroke-opacity:0"
       id="rect2610-9"
       width="5.577219"
       height="41.788696"
       x="142.21242"
       y="-102.99261"
       transform="matrix(0.12822539,0.99174505,0.97576968,-0.21880023,0,0)" />
    <g
       id="g3282"
       transform="matrix(-0.15590419,1.2292703,-1.2292703,-0.15590419,273.89696,44.71446)">
      <path
         inkscape:connector-curvature="0"
         id="path2658-8"
         d="m 74.08563,280.70473 a 15.328604,1.4699235 0 0 1 -15.328605,1.46993 15.328604,1.4699235 0 0 1 -15.328604,-1.46993 15.328604,1.4699235 0 0 1 15.328604,-1.46992 15.328604,1.4699235 0 0 1 15.328605,1.46992 z"
         style="opacity:0.68999999;fill:url(#linearGradient2699-2);fill-opacity:1;stroke:#00758c;stroke-width:0.02596746;stroke-linejoin:round;stroke-miterlimit:4;stroke-dasharray:none;stroke-opacity:0" />
      <path
         inkscape:connector-curvature="0"
         id="path2658-8-9"
         d="m 59.130471,279.23616 a 15.328604,1.4699235 0 0 1 0.852144,0.004 15.328604,1.4699235 0 0 0 -0.852144,-0.004 z m -1.740464,0.006 a 15.328604,1.4699235 0 0 0 -0.644403,0.007 15.328604,1.4699235 0 0 1 0.644403,-0.007 z m 3.565158,0.01 a 15.328604,1.4699235 0 0 1 0.591179,0.009 15.328604,1.4699235 0 0 0 -0.591179,-0.009 z m -5.006412,0.009 a 15.328604,1.4699235 0 0 0 -0.750342,0.0164 15.328604,1.4699235 0 0 1 0.750342,-0.0164 z m 6.442501,0.018 a 15.328604,1.4699235 0 0 1 0.641821,0.0156 15.328604,1.4699235 0 0 0 -0.641821,-0.0156 z m -7.978842,0.0175 a 15.328604,1.4699235 0 0 0 -0.659391,0.0212 15.328604,1.4699235 0 0 1 0.659391,-0.0212 z m 9.476942,0.0254 a 15.328604,1.4699235 0 0 1 0.595313,0.0212 15.328604,1.4699235 0 0 0 -0.595313,-0.0212 z m -10.882024,0.0217 a 15.328604,1.4699235 0 0 0 -0.710551,0.0305 15.328604,1.4699235 0 0 1 0.710551,-0.0305 z m 12.294341,0.0341 a 15.328604,1.4699235 0 0 1 0.555522,0.0259 15.328604,1.4699235 0 0 0 -0.555522,-0.0259 z m -13.709242,0.0289 a 15.328604,1.4699235 0 0 0 -0.560172,0.031 15.328604,1.4699235 0 0 1 0.560172,-0.031 z m 15.041977,0.0393 a 15.328604,1.4699235 0 0 1 0.570508,0.0336 15.328604,1.4699235 0 0 0 -0.570508,-0.0336 z m -16.391765,0.0382 a 15.328604,1.4699235 0 0 0 -0.488859,0.0336 15.328604,1.4699235 0 0 1 0.488859,-0.0336 z m 17.674373,0.0444 a 15.328604,1.4699235 0 0 1 0.500745,0.0367 15.328604,1.4699235 0 0 0 -0.500745,-0.0367 z m -18.879984,0.0413 a 15.328604,1.4699235 0 0 0 -0.497644,0.0419 15.328604,1.4699235 0 0 1 0.497644,-0.0419 z m 20.026685,0.0496 a 15.328604,1.4699235 0 0 1 0.521414,0.0465 15.328604,1.4699235 0 0 0 -0.521414,-0.0465 z m -21.151681,0.048 a 15.328604,1.4699235 0 0 0 -0.480074,0.0496 15.328604,1.4699235 0 0 1 0.480074,-0.0496 z m 22.19451,0.0522 a 15.328604,1.4699235 0 0 1 0.51263,0.0558 15.328604,1.4699235 0 0 0 -0.51263,-0.0558 z m -23.222871,0.0574 a 15.328604,1.4699235 0 0 0 -0.447001,0.0563 15.328604,1.4699235 0 0 1 0.447001,-0.0563 z m 24.210925,0.0589 a 15.328604,1.4699235 0 0 1 0.418579,0.0558 15.328604,1.4699235 0 0 0 -0.418579,-0.0558 z m -25.098726,0.0563 a 15.328604,1.4699235 0 0 0 -0.409277,0.0641 15.328604,1.4699235 0 0 1 0.409277,-0.0641 z m 25.958622,0.0682 a 15.328604,1.4699235 0 0 1 0.337447,0.0563 15.328604,1.4699235 0 0 0 -0.337447,-0.0563 z m -26.752372,0.0605 a 15.328604,1.4699235 0 0 0 -0.319877,0.0631 15.328604,1.4699235 0 0 1 0.319877,-0.0631 z m 27.462921,0.0703 a 15.328604,1.4699235 0 0 1 0.280604,0.0599 15.328604,1.4699235 0 0 0 -0.280604,-0.0599 z m -28.104226,0.0615 a 15.328604,1.4699235 0 0 0 -0.259932,0.0687 15.328604,1.4699235 0 0 1 0.259932,-0.0687 z m 28.659232,0.0703 a 15.328604,1.4699235 0 0 1 0.235128,0.0682 15.328604,1.4699235 0 0 0 -0.235128,-0.0682 z m -29.163594,0.0687 a 15.328604,1.4699235 0 0 0 -0.189652,0.0713 15.328604,1.4699235 0 0 1 0.189652,-0.0713 z m 29.594058,0.0729 a 15.328604,1.4699235 0 0 1 0.160716,0.0687 15.328604,1.4699235 0 0 0 -0.160716,-0.0687 z m -29.949591,0.0692 a 15.328604,1.4699235 0 0 0 -0.116789,0.0744 15.328604,1.4699235 0 0 1 0.116789,-0.0744 z m 30.229163,0.0749 a 15.328604,1.4699235 0 0 1 0.0894,0.0708 15.328604,1.4699235 0 0 0 -0.0894,-0.0708 z m -30.435869,0.0703 a 15.328604,1.4699235 0 0 0 -0.06615,0.1261 15.328604,1.4699235 0 0 0 0.01964,0.0532 h 5.3e-4 a 15.328604,1.4699235 0 0 1 -0.01964,-0.0532 15.328604,1.4699235 0 0 1 0.06563,-0.1261 z m -0.04651,0.17934 h -0.0093 a 15.324305,3.7910034 0 0 0 15.430066,3.73774 15.324305,3.7910034 0 0 0 15.217161,-3.79098 15.328604,1.4699235 0 0 1 -0.305409,0.29197 15.328604,1.4699235 0 0 1 -0.379304,0.14211 15.328604,1.4699235 0 0 1 -12.038541,1.01441 15.328604,1.4699235 0 0 1 -2.605527,0.0217 15.328604,1.4699235 0 0 1 -1.530138,-0.008 15.328604,1.4699235 0 0 1 -2.999302,-0.0584 15.328604,1.4699235 0 0 1 -5.29e-4,0 15.328604,1.4699235 0 0 1 -2.817916,-0.1142 15.328604,1.4699235 0 0 1 -10e-4,0 15.328604,1.4699235 0 0 1 -1.30483,-0.077 15.328604,1.4699235 0 0 1 -0.0016,0 15.328604,1.4699235 0 0 1 -1.217496,-0.0889 15.328604,1.4699235 0 0 1 -0.0021,0 15.328604,1.4699235 0 0 1 -5.432743,-1.06815 15.328604,1.4699235 0 0 1 -0.0016,-0.003 z"
         style="opacity:0.68999999;fill:url(#linearGradient2699-2-1);fill-opacity:1;stroke:#00758c;stroke-width:0.02596746;stroke-linejoin:round;stroke-miterlimit:4;stroke-dasharray:none;stroke-opacity:0" />
    </g>
    <g
       id="g3288"
       transform="matrix(0.17590932,1.2265672,-1.2265672,0.17590932,251.01648,-7.357735)">
      <path
         inkscape:connector-curvature="0"
         id="path2658-8-0"
         d="m 116.11515,284.36878 a 15.328604,1.4699235 0 0 1 -15.32861,1.46993 15.328604,1.4699235 0 0 1 -15.328601,-1.46993 15.328604,1.4699235 0 0 1 15.328601,-1.46992 15.328604,1.4699235 0 0 1 15.32861,1.46992 z"
         style="opacity:0.68999999;fill:url(#linearGradient2699-2-5);fill-opacity:1;stroke:#00758c;stroke-width:0.02596746;stroke-linejoin:round;stroke-miterlimit:4;stroke-dasharray:none;stroke-opacity:0" />
      <path
         inkscape:connector-curvature="0"
         id="path2658-8-9-3"
         d="m 101.15999,282.90021 a 15.328604,1.4699235 0 0 1 0.85214,0.004 15.328604,1.4699235 0 0 0 -0.85214,-0.004 z m -1.740464,0.006 a 15.328604,1.4699235 0 0 0 -0.644403,0.007 15.328604,1.4699235 0 0 1 0.644403,-0.007 z m 3.565154,0.01 a 15.328604,1.4699235 0 0 1 0.59118,0.009 15.328604,1.4699235 0 0 0 -0.59118,-0.009 z m -5.006408,0.009 a 15.328604,1.4699235 0 0 0 -0.750342,0.0164 15.328604,1.4699235 0 0 1 0.750342,-0.0164 z m 6.442498,0.018 a 15.328604,1.4699235 0 0 1 0.64182,0.0156 15.328604,1.4699235 0 0 0 -0.64182,-0.0156 z m -7.978839,0.0175 a 15.328604,1.4699235 0 0 0 -0.659391,0.0212 15.328604,1.4699235 0 0 1 0.659391,-0.0212 z m 9.476939,0.0254 a 15.328604,1.4699235 0 0 1 0.59532,0.0212 15.328604,1.4699235 0 0 0 -0.59532,-0.0212 z m -10.882021,0.0217 a 15.328604,1.4699235 0 0 0 -0.710551,0.0305 15.328604,1.4699235 0 0 1 0.710551,-0.0305 z m 12.294341,0.0341 a 15.328604,1.4699235 0 0 1 0.55552,0.0259 15.328604,1.4699235 0 0 0 -0.55552,-0.0259 z m -13.709242,0.0289 a 15.328604,1.4699235 0 0 0 -0.560172,0.031 15.328604,1.4699235 0 0 1 0.560172,-0.031 z m 15.041982,0.0393 a 15.328604,1.4699235 0 0 1 0.5705,0.0336 15.328604,1.4699235 0 0 0 -0.5705,-0.0336 z m -16.39177,0.0382 a 15.328604,1.4699235 0 0 0 -0.488859,0.0336 15.328604,1.4699235 0 0 1 0.488859,-0.0336 z m 17.67437,0.0444 a 15.328604,1.4699235 0 0 1 0.50075,0.0367 15.328604,1.4699235 0 0 0 -0.50075,-0.0367 z m -18.879981,0.0413 a 15.328604,1.4699235 0 0 0 -0.497645,0.0419 15.328604,1.4699235 0 0 1 0.497645,-0.0419 z m 20.026681,0.0496 a 15.328604,1.4699235 0 0 1 0.52142,0.0465 15.328604,1.4699235 0 0 0 -0.52142,-0.0465 z m -21.151678,0.048 a 15.328604,1.4699235 0 0 0 -0.480074,0.0496 15.328604,1.4699235 0 0 1 0.480074,-0.0496 z m 22.194508,0.0522 a 15.328604,1.4699235 0 0 1 0.51263,0.0558 15.328604,1.4699235 0 0 0 -0.51263,-0.0558 z m -23.222869,0.0574 a 15.328604,1.4699235 0 0 0 -0.447,0.0563 15.328604,1.4699235 0 0 1 0.447,-0.0563 z m 24.210929,0.0589 a 15.328604,1.4699235 0 0 1 0.41858,0.0558 15.328604,1.4699235 0 0 0 -0.41858,-0.0558 z m -25.098729,0.0563 a 15.328604,1.4699235 0 0 0 -0.409277,0.0641 15.328604,1.4699235 0 0 1 0.409277,-0.0641 z m 25.958619,0.0682 a 15.328604,1.4699235 0 0 1 0.33745,0.0563 15.328604,1.4699235 0 0 0 -0.33745,-0.0563 z m -26.75237,0.0605 a 15.328604,1.4699235 0 0 0 -0.319877,0.0631 15.328604,1.4699235 0 0 1 0.319877,-0.0631 z m 27.46292,0.0703 a 15.328604,1.4699235 0 0 1 0.28061,0.0599 15.328604,1.4699235 0 0 0 -0.28061,-0.0599 z m -28.104225,0.0615 a 15.328604,1.4699235 0 0 0 -0.259932,0.0687 15.328604,1.4699235 0 0 1 0.259932,-0.0687 z m 28.659235,0.0703 a 15.328604,1.4699235 0 0 1 0.23513,0.0682 15.328604,1.4699235 0 0 0 -0.23513,-0.0682 z m -29.163597,0.0687 a 15.328604,1.4699235 0 0 0 -0.189652,0.0713 15.328604,1.4699235 0 0 1 0.189652,-0.0713 z m 29.594057,0.0729 a 15.328604,1.4699235 0 0 1 0.16072,0.0687 15.328604,1.4699235 0 0 0 -0.16072,-0.0687 z m -29.94959,0.0692 a 15.328604,1.4699235 0 0 0 -0.116789,0.0744 15.328604,1.4699235 0 0 1 0.116789,-0.0744 z m 30.22916,0.0749 a 15.328604,1.4699235 0 0 1 0.0894,0.0708 15.328604,1.4699235 0 0 0 -0.0894,-0.0708 z m -30.435866,0.0703 a 15.328604,1.4699235 0 0 0 -0.06615,0.1261 15.328604,1.4699235 0 0 0 0.01964,0.0532 h 5.3e-4 a 15.328604,1.4699235 0 0 1 -0.01964,-0.0532 15.328604,1.4699235 0 0 1 0.06563,-0.1261 z m -0.04651,0.17934 h -0.0093 a 15.324305,3.7910034 0 0 0 15.430066,3.73774 15.324305,3.7910034 0 0 0 15.21716,-3.79098 15.328604,1.4699235 0 0 1 -0.30541,0.29197 15.328604,1.4699235 0 0 1 -0.3793,0.14211 15.328604,1.4699235 0 0 1 -12.03854,1.01441 15.328604,1.4699235 0 0 1 -2.60553,0.0217 15.328604,1.4699235 0 0 1 -1.530137,-0.008 15.328604,1.4699235 0 0 1 -2.999302,-0.0584 15.328604,1.4699235 0 0 1 -5.29e-4,0 15.328604,1.4699235 0 0 1 -2.817916,-0.1142 15.328604,1.4699235 0 0 1 -10e-4,0 15.328604,1.4699235 0 0 1 -1.30483,-0.077 15.328604,1.4699235 0 0 1 -0.0016,0 15.328604,1.4699235 0 0 1 -1.217497,-0.0889 15.328604,1.4699235 0 0 1 -0.0021,0 15.328604,1.4699235 0 0 1 -5.432743,-1.06815 15.328604,1.4699235 0 0 1 -0.0016,-0.003 z"
         style="opacity:0.68999999;fill:url(#linearGradient2699-2-1-7);fill-opacity:1;stroke:#00758c;stroke-width:0.02596746;stroke-linejoin:round;stroke-miterlimit:4;stroke-dasharray:none;stroke-opacity:0" />
    </g>
    <ellipse
       style="opacity:0.68999999;fill:#12b2ff;fill-opacity:1;stroke:#00758c;stroke-width:0.03221709;stroke-linejoin:round;stroke-miterlimit:4;stroke-dasharray:none;stroke-opacity:0"
       id="path3311-6-1"
       cx="-41.331589"
       cy="-170.13528"
       rx="10.718163"
       ry="13.660409"
       transform="rotate(166.65877)" />
    <ellipse
       style="opacity:0.68999999;fill:#12b2ff;fill-opacity:1;stroke:#00758c;stroke-width:0.03221709;stroke-linejoin:round;stroke-miterlimit:4;stroke-dasharray:none;stroke-opacity:0"
       id="path3311-6-1-6"
       cx="-79.091637"
       cy="-118.76881"
       rx="10.718163"
       ry="13.660409"
       transform="rotate(-178.57449)" />
    <ellipse
       style="opacity:0.68999999;fill:#12b2ff;fill-opacity:1;stroke:#00758c;stroke-width:0.03221709;stroke-linejoin:round;stroke-miterlimit:4;stroke-dasharray:none;stroke-opacity:0"
       id="path3311-6-1-6-3"
       cx="-86.458191"
       cy="-76.997902"
       rx="10.718163"
       ry="13.660409"
       transform="rotate(-174.46912)" />
    <ellipse
       style="opacity:1;fill:none;fill-opacity:1;stroke:#00acc8;stroke-width:1.4881798;stroke-linejoin:round;stroke-miterlimit:4;stroke-dasharray:none;stroke-opacity:1"
       id="path3404"
       cx="80.979431"
       cy="3.9585981"
       rx="10.779601"
       ry="25.911129"
       transform="rotate(90)" />
  </g>
</svg>
